# xmcd
#
# Track frame offsets: 
#        150
#        17760
#        43395
#        70360
#        88585
#        111235
#        135385
#        149370
#        169575
#        203015
#
# Disc length: 3149 seconds
#
# Revision: 1
# Processed by: cddbd v1.5.2PL0 Copyright (c) Steve Scherf et al.
# Submitted via: ExactAudioCopy v0.95b3
#
DISCID=8c0c4b0a
DTITLE=Marie and Anders Bergman - Bergman and Bellman
DYEAR=1998
DGENRE=Svenskt
TTITLE0=Se Svarta Böljan
TTITLE1=Joachim uti babylon
TTITLE2=Nå skruva fiolen
TTITLE3=I Januari månad
TTITLE4=Tjänare Mollberg
TTITLE5=Värm mer öl och bröd
TTITLE6=Hjärtat mig klämmer
TTITLE7=Är jag född så vill jag leva
TTITLE8=Liksom en herdinna
TTITLE9=Drick ur ditt glas
EXTD=
EXTT0=
EXTT1=
EXTT2=
EXTT3=
EXTT4=
EXTT5=
EXTT6=
EXTT7=
EXTT8=
EXTT9=
PLAYORDER=
